<svg width="25" height="24" viewBox="0 0 25 24" fill="none" xmlns="http://www.w3.org/2000/svg">
<path d="M12.1539 1.00403e-06C5.54561 -0.00268026 0.193237 5.36521 0.193237 11.9906C0.193237 17.2298 3.54147 21.6834 8.20442 23.319C8.83238 23.4772 8.73618 23.0294 8.73618 22.7237V20.6457C5.11004 21.0721 4.96307 18.6643 4.7199 18.2621C4.22822 17.4202 3.06583 17.2057 3.41321 16.8035C4.23891 16.3772 5.08065 16.9107 6.05599 18.3559C6.76145 19.4043 8.13762 19.2274 8.83505 19.0531C8.98737 18.423 9.31337 17.8599 9.7623 17.4229C6.00522 16.7472 4.43932 14.4467 4.43932 11.7118C4.43932 10.3845 4.87489 9.16457 5.72999 8.18054C5.18486 6.55838 5.78076 5.16948 5.86092 4.96302C7.41346 4.8236 9.02745 6.07843 9.15304 6.17764C10.0349 5.939 11.0423 5.81298 12.1699 5.81298C13.3029 5.81298 14.313 5.94437 15.2028 6.18568C15.5048 5.95509 17.0012 4.87722 18.4442 5.0086C18.5217 5.21506 19.1042 6.57178 18.5912 8.1725C19.457 9.1592 19.8979 10.3899 19.8979 11.7198C19.8979 14.4601 18.3213 16.7633 14.5535 17.4282C14.8762 17.7467 15.1325 18.1265 15.3073 18.5454C15.4821 18.9643 15.5719 19.414 15.5716 19.8682V22.8846C15.593 23.1259 15.5716 23.3645 15.9724 23.3645C20.7049 21.7638 24.1119 17.2781 24.1119 11.9933C24.1119 5.36521 18.7568 1.00403e-06 12.1539 1.00403e-06Z" fill="#4DA8FF"/>
</svg>
