<svg width="25" height="24" viewBox="0 0 25 24" fill="none" xmlns="http://www.w3.org/2000/svg">
<path d="M12.1496 7.9983C9.95355 7.9983 8.16143 9.79651 8.16143 12C8.16143 14.2035 9.95355 16.0017 12.1496 16.0017C14.3456 16.0017 16.1377 14.2035 16.1377 12C16.1377 9.79651 14.3456 7.9983 12.1496 7.9983ZM24.111 12C24.111 10.3429 24.126 8.70077 24.0332 7.04665C23.9405 5.12536 23.5036 3.4202 22.1035 2.01525C20.7003 0.607302 19.0039 0.172009 17.0891 0.0789456C15.4376 -0.0141172 13.8011 0.000892936 12.1526 0.000892936C10.5011 0.000892936 8.86451 -0.0141172 7.216 0.0789456C5.30122 0.172009 3.60185 0.610305 2.20166 2.01525C0.798481 3.42321 0.364663 5.12536 0.271915 7.04665C0.179168 8.70377 0.194127 10.3459 0.194127 12C0.194127 13.6541 0.179168 15.2992 0.271915 16.9533C0.364663 18.8746 0.801473 20.5798 2.20166 21.9847C3.60484 23.3927 5.30122 23.828 7.216 23.9211C8.86751 24.0141 10.504 23.9991 12.1526 23.9991C13.8041 23.9991 15.4406 24.0141 17.0891 23.9211C19.0039 23.828 20.7033 23.3897 22.1035 21.9847C23.5066 20.5768 23.9405 18.8746 24.0332 16.9533C24.1289 15.2992 24.111 13.6571 24.111 12ZM12.1496 18.1572C8.75382 18.1572 6.01328 15.4073 6.01328 12C6.01328 8.5927 8.75382 5.84284 12.1496 5.84284C15.5453 5.84284 18.2859 8.5927 18.2859 12C18.2859 15.4073 15.5453 18.1572 12.1496 18.1572ZM18.5372 7.02864C17.7443 7.02864 17.1041 6.38621 17.1041 5.59067C17.1041 4.79513 17.7443 4.1527 18.5372 4.1527C19.33 4.1527 19.9703 4.79513 19.9703 5.59067C19.9705 5.77957 19.9336 5.96667 19.8617 6.14124C19.7897 6.31581 19.6842 6.47442 19.5511 6.608C19.4179 6.74157 19.2599 6.84748 19.0859 6.91967C18.9119 6.99185 18.7254 7.02888 18.5372 7.02864Z" fill="#4DA8FF"/>
</svg>
